<?xml version="1.0" standalone="no"?>
<!DOCTYPE svg PUBLIC "-//W3C//DTD SVG 20010904//EN"
 "http://www.w3.org/TR/2001/REC-SVG-20010904/DTD/svg10.dtd">
<svg version="1.0" xmlns="http://www.w3.org/2000/svg"
 width="476.000000pt" height="526.000000pt" viewBox="0 0 476.000000 526.000000"
 preserveAspectRatio="xMidYMid meet">

<g transform="translate(0.000000,526.000000) scale(0.100000,-0.100000)"
fill="#000000" stroke="none">
<path d="M554 5167 c-3 -8 -3 -277 -2 -598 3 -570 4 -585 25 -641 71 -188 219
-313 442 -372 106 -29 297 -50 379 -44 78 7 207 -9 256 -31 155 -68 151 -276
-6 -358 -80 -42 -144 -54 -313 -59 -179 -6 -214 -13 -267 -55 -53 -42 -107
-40 -201 8 -62 32 -81 37 -137 37 -117 -1 -204 -63 -251 -180 l-24 -59 0 -692
0 -693 33 -32 c30 -31 37 -33 101 -33 l69 0 4 -90 c5 -104 26 -158 72 -186 38
-23 94 -24 124 -3 l22 15 0 -78 c0 -54 6 -90 19 -119 51 -113 171 -113 222 0
17 38 19 79 19 658 0 447 3 624 12 643 28 62 182 99 461 109 l157 6 0 -424 c0
-471 2 -487 64 -556 49 -54 49 -95 0 -176 -48 -79 -56 -101 -55 -156 0 -135
109 -239 281 -268 45 -7 391 -10 1130 -8 l1065 3 43 23 c53 28 85 76 77 117
-13 70 -92 114 -224 122 l-89 6 15 34 c27 65 -21 139 -105 163 -20 5 -84 10
-141 10 -94 0 -103 2 -96 18 27 68 7 137 -50 172 -31 19 -49 20 -471 20 -491
0 -488 0 -529 70 -20 34 -20 50 -23 985 l-2 950 820 820 c468 468 820 828 820
838 0 18 -16 50 -39 80 -13 16 -114 17 -1858 17 -1531 0 -1844 -2 -1849 -13z
m719 -274 c11 -434 59 -604 190 -672 44 -22 64 -25 230 -32 253 -10 365 -36
529 -121 119 -61 238 -182 296 -298 64 -131 85 -235 85 -415 0 -224 -38 -370
-140 -534 -167 -268 -501 -451 -825 -451 -89 0 -246 -13 -315 -26 l-33 -6 0
336 0 336 83 0 c165 1 308 50 381 131 106 118 82 297 -50 371 -75 42 -166 58
-335 58 -223 0 -355 27 -501 102 -135 70 -236 202 -255 338 -4 30 -7 295 -5
588 l3 532 328 0 328 0 6 -237z m1347 -495 l-1 -733 -27 70 c-92 231 -298 399
-579 471 -79 21 -135 27 -290 33 -176 7 -197 10 -240 33 -92 47 -132 172 -153
476 -5 81 -10 200 -10 265 l0 117 650 0 650 0 0 -732z m1600 727 c0 -5 -1535
-775 -1545 -775 -3 0 -5 176 -5 390 l0 390 775 0 c426 0 775 -2 775 -5z m-20
-78 c0 -1 -344 -346 -765 -767 l-765 -765 0 385 0 385 763 382 c794 398 767
385 767 380z m-2960 -2379 l0 -343 -52 -25 c-31 -15 -62 -39 -75 -59 l-23 -34
0 -624 c0 -557 -2 -629 -16 -659 -31 -64 -89 -70 -121 -11 -17 29 -18 84 -23
662 -5 622 -5 630 -25 630 -20 0 -20 -8 -25 -510 -5 -534 -6 -541 -50 -565
-30 -16 -50 -12 -81 19 l-29 29 0 512 c0 447 -2 511 -15 516 -8 4 -22 1 -30
-6 -13 -11 -15 -68 -15 -386 l0 -373 -22 -15 c-30 -21 -81 -20 -107 2 l-22 17
3 695 3 695 28 52 c38 72 90 106 172 111 56 4 70 0 140 -34 106 -52 163 -53
229 -5 50 35 84 49 129 50 l27 1 0 -342z m1370 -368 l0 -700 -395 0 -395 0 2
366 3 366 85 25 c188 54 349 152 483 293 87 92 149 187 188 288 13 34 25 62
27 62 1 0 2 -315 2 -700z m15 -804 c16 -47 59 -94 102 -112 26 -11 121 -14
471 -14 423 0 440 -1 465 -20 44 -35 43 -93 -2 -127 -12 -9 -125 -12 -452 -13
-398 0 -437 -1 -443 -17 -4 -9 -3 -20 1 -24 5 -5 274 -10 598 -11 542 -3 593
-4 622 -21 55 -29 57 -89 4 -120 -27 -16 -80 -17 -619 -17 -512 0 -591 -2
-602 -15 -10 -12 -10 -18 0 -30 10 -13 113 -15 750 -17 732 -3 739 -3 767 -24
60 -45 32 -104 -59 -123 -66 -15 -2057 -15 -2148 -1 -118 19 -195 64 -229 133
-33 69 -28 119 21 201 35 57 43 80 46 131 4 60 3 64 -30 101 -46 52 -56 71
-64 132 l-7 52 398 -2 397 -3 13 -39z"/>
<path d="M2151 4862 c-91 -50 -91 -181 1 -228 67 -35 145 -9 181 59 25 49 16
97 -26 144 -41 44 -103 55 -156 25z m128 -58 c47 -60 7 -144 -69 -144 -33 0
-80 53 -80 90 0 73 104 111 149 54z"/>
<path d="M186 774 c-22 -22 -29 -55 -18 -85 9 -22 42 -37 265 -117 l255 -92
124 0 c87 -1 128 -5 141 -14 16 -13 15 -16 -17 -48 -55 -55 -69 -133 -37 -203
49 -110 182 -145 279 -75 49 35 72 84 72 150 0 64 -30 122 -79 152 l-35 22 30
13 c23 9 297 12 1265 13 l1235 0 27 -28 27 -29 -21 -19 c-53 -47 -66 -156 -26
-215 81 -121 250 -113 308 15 32 71 19 147 -35 201 l-26 26 27 24 c26 22 36
24 135 25 l107 0 228 91 c125 50 236 98 245 107 21 18 24 55 5 70 -34 29 -64
23 -289 -58 l-227 -80 -1743 2 -1743 3 -208 83 c-114 45 -218 82 -231 82 -14
0 -32 -7 -40 -16z m924 -444 c39 -39 14 -100 -41 -100 -35 0 -59 24 -59 57 0
57 61 82 100 43z m2750 2 c26 -21 30 -66 7 -89 -23 -23 -68 -19 -89 7 -24 29
-23 49 4 77 26 28 48 29 78 5z"/>
</g>
</svg>
